<?xml version="1.0" encoding="UTF-8" standalone="no"?>
<svg width="220px" height="30px" viewBox="0 0 220 30" version="1.1" xmlns="http://www.w3.org/2000/svg" xmlns:xlink="http://www.w3.org/1999/xlink" xmlns:sketch="http://www.bohemiancoding.com/sketch/ns">
    <!-- Generator: Sketch 3.2.2 (9983) - http://www.bohemiancoding.com/sketch -->
    <title>MARCO_portal_logo_wht_yellow_recropped</title>
    <desc>Created with Sketch.</desc>
    <defs></defs>
    <g id="Page-1" stroke="none" stroke-width="1" fill="none" fill-rule="evenodd" sketch:type="MSPage">
        <g id="MARCO_portal_logo_blue_green_recropped" sketch:type="MSLayerGroup">
            <g id="Page-1" sketch:type="MSShapeGroup">
                <g id="MARCO_portal_logo_blue_green">
                    <g id="Group">
                        <g transform="translate(116.000000, 2.000000)" fill="#FFFFFF">
                            <path d="M0.9,0.2 L1.7,0.2 L4.4,4.4 L7.2,0.2 L8,0.2 L8,7.1 L7.2,7.1 L7.2,1.7 L4.4,5.8 L1.7,1.7 L1.7,7.1 L0.9,7.1 L0.9,0.2 L0.9,0.2 Z" id="Shape"></path>
                            <rect id="Rectangle-path" x="9.9" y="1.7" width="0.8" height="5.4"></rect>
                            <path d="M13.5,2.5 L13.5,6.3 L15,6.3 C16.3,6.3 17,5.5 17,4.4 C17,3.3 16.2,2.5 15,2.5 L13.5,2.5 L13.5,2.5 Z M17.9,4.4 C17.9,5.9 16.9,7 15,7 L12.6,7 L12.6,1.7 L15,1.7 C16.8,1.7 17.9,2.9 17.9,4.4 L17.9,4.4 L17.9,4.4 Z" id="Shape"></path>
                            <rect id="Rectangle-path" x="18.6" y="3.3" width="2.7" height="0.8"></rect>
                            <path d="M26.9,4.4 L25.4,1.3 L23.9,4.4 L26.9,4.4 L26.9,4.4 Z M25,0.2 L25.7,0.2 L29.1,7.1 L28.2,7.1 L27.3,5.2 L23.5,5.2 L22.6,7.1 L21.7,7.1 L25,0.2 L25,0.2 Z" id="Shape"></path>
                            <path d="M30.8,2.5 L28.6,2.5 L28.6,1.7 L33.9,1.7 L33.9,2.5 L31.6,2.5 L31.6,7.1 L30.8,7.1 L30.8,2.5 L30.8,2.5 Z" id="Shape"></path>
                            <path d="M34.7,1.7 L35.6,1.7 L35.6,6.3 L39.5,6.3 L39.5,7.1 L34.7,7.1 L34.7,1.7 L34.7,1.7 Z" id="Shape"></path>
                            <path d="M43.5,5 L42.5,3 L41.5,5 L43.5,5 L43.5,5 Z M42.2,1.7 L42.7,1.7 L45.4,7 L44.5,7 L43.8,5.6 L41,5.6 L40.3,7 L39.4,7 L42.2,1.7 L42.2,1.7 Z" id="Shape"></path>
                            <path d="M46.2,1.7 L46.7,1.7 L50.1,5.5 L50.1,1.7 L50.9,1.7 L50.9,7.1 L50.4,7.1 L47,3.3 L47,7.1 L46.2,7.1 L46.2,1.7 L46.2,1.7 Z" id="Shape"></path>
                            <path d="M54,2.5 L51.7,2.5 L51.7,1.7 L57.1,1.7 L57.1,2.5 L54.8,2.5 L54.8,7.1 L54,7.1 L54,2.5 L54,2.5 Z" id="Shape"></path>
                            <rect id="Rectangle-path" x="57.9" y="1.7" width="0.8" height="5.4"></rect>
                            <path d="M63.3,7.2 C61.4,7.2 60.1,6 60.1,4.4 C60.1,2.8 61.4,1.6 63.3,1.6 C64.5,1.6 65.5,2.1 66,2.9 L65.3,3.4 C64.9,2.8 64.1,2.5 63.2,2.5 C61.8,2.5 60.8,3.4 60.8,4.5 C60.8,5.7 61.8,6.5 63.2,6.5 C64.2,6.5 64.9,6.1 65.4,5.3 L66.1,5.8 C65.6,6.7 64.6,7.2 63.3,7.2" id="Shape"></path>
                            <path d="M77.7,3.6 C77.7,2 76.6,0.8 75,0.8 C73.5,0.8 72.3,2 72.3,3.6 C72.3,5.2 73.5,6.4 75,6.4 C76.6,6.4 77.7,5.3 77.7,3.6 M71.5,3.6 C71.5,1.5 73,0 75.1,0 C77.2,0 78.7,1.5 78.7,3.6 C78.7,5.7 77.2,7.2 75.1,7.2 C73,7.3 71.5,5.7 71.5,3.6" id="Shape"></path>
                            <path d="M82.8,7.2 C80.9,7.2 79.6,6 79.6,4.4 C79.6,2.8 80.9,1.6 82.8,1.6 C84,1.6 85,2.1 85.5,2.9 L84.8,3.4 C84.4,2.8 83.6,2.5 82.7,2.5 C81.3,2.5 80.3,3.4 80.3,4.5 C80.3,5.7 81.3,6.5 82.7,6.5 C83.7,6.5 84.4,6.1 84.9,5.3 L85.6,5.8 C85,6.7 84,7.2 82.8,7.2" id="Shape"></path>
                            <path d="M87,1.7 L92.1,1.7 L92.1,2.5 L87.9,2.5 L87.9,3.8 L90.6,3.8 L90.6,4.6 L87.9,4.6 L87.9,6.3 L92.3,6.3 L92.3,7.1 L87,7.1 L87,1.7 L87,1.7 Z" id="Shape"></path>
                            <path d="M96.5,5 L95.5,3 L94.5,5 L96.5,5 L96.5,5 Z M95.2,1.7 L95.7,1.7 L98.4,7 L97.5,7 L96.8,5.6 L94,5.6 L93.3,7 L92.4,7 L95.2,1.7 L95.2,1.7 Z" id="Shape"></path>
                            <path d="M99.2,1.7 L99.7,1.7 L103.1,5.5 L103.1,1.7 L103.9,1.7 L103.9,7.1 L103.4,7.1 L100,3.3 L100,7.1 L99.2,7.1 L99.2,1.7 L99.2,1.7 Z" id="Shape"></path>
                        </g>
                        <g id="Shape" transform="translate(116.000000, 12.000000)" fill="#FFFFFF">
                            <path d="M1.4,0.9 L1.4,6.2 L3.5,6.2 C5.3,6.2 6.2,5.1 6.2,3.6 C6.2,2.1 5.2,0.9 3.5,0.9 L1.4,0.9 L1.4,0.9 Z M7.1,3.5 C7.1,5.5 5.8,6.9 3.5,6.9 L0.5,6.9 L0.5,0 L3.5,0 C5.8,0.1 7.1,1.6 7.1,3.5 L7.1,3.5 L7.1,3.5 Z"></path>
                            <path d="M11.5,4.9 L10.5,2.9 L9.5,4.9 L11.5,4.9 L11.5,4.9 Z M10.2,1.6 L10.7,1.6 L13.4,6.9 L12.5,6.9 L11.8,5.5 L9,5.5 L8.3,6.9 L7.4,6.9 L10.2,1.6 L10.2,1.6 Z"></path>
                            <path d="M15.1,2.4 L12.8,2.4 L12.8,1.6 L18.1,1.6 L18.1,2.4 L15.9,2.4 L15.9,7 L15.1,7 L15.1,2.4 L15.1,2.4 Z"></path>
                            <path d="M21.5,4.9 L20.5,2.9 L19.4,4.9 L21.5,4.9 L21.5,4.9 Z M20.2,1.6 L20.7,1.6 L23.4,6.9 L22.5,6.9 L21.8,5.5 L19,5.5 L18.3,6.9 L17.4,6.9 L20.2,1.6 L20.2,1.6 Z"></path>
                            <path d="M32.5,3.2 C33.4,3.2 33.8,2.8 33.8,2.1 C33.8,1.4 33.4,0.9 32.5,0.9 L29.4,0.9 L29.4,3.2 L32.5,3.2 L32.5,3.2 Z M28.6,0.1 L32.6,0.1 C34,0.1 34.8,0.8 34.8,2 C34.8,3.2 34,4 32.8,4 L29.6,4 L29.6,7 L28.7,7 L28.7,0.1 L28.6,0.1 L28.6,0.1 Z"></path>
                            <path d="M41,4.3 C41,3.2 40.1,2.3 38.6,2.3 C37.1,2.3 36.2,3.2 36.2,4.3 C36.2,5.4 37.1,6.3 38.6,6.3 C40,6.4 41,5.5 41,4.3 M35.3,4.3 C35.3,2.7 36.6,1.5 38.6,1.5 C40.6,1.5 41.9,2.7 41.9,4.3 C41.9,5.9 40.6,7.1 38.6,7.1 C36.6,7.1 35.3,5.9 35.3,4.3"></path>
                            <path d="M46.9,3.9 C47.5,3.9 47.8,3.6 47.8,3.2 C47.8,2.7 47.5,2.5 46.9,2.5 L44,2.5 L44,3.9 L46.9,3.9 L46.9,3.9 Z M44,7 L43.2,7 L43.2,1.7 L46.9,1.7 C48,1.7 48.6,2.3 48.6,3.2 C48.6,3.9 48.1,4.6 47.3,4.7 L48.8,7 L47.9,7 L46.4,4.7 L44,4.7 L44,7 L44,7 Z"></path>
                            <path d="M51.4,2.4 L49.1,2.4 L49.1,1.6 L54.5,1.6 L54.5,2.4 L52.2,2.4 L52.2,7 L51.4,7 L51.4,2.4 L51.4,2.4 Z"></path>
                            <path d="M57.8,4.9 L56.8,2.9 L55.7,4.9 L57.8,4.9 L57.8,4.9 Z M56.5,1.6 L57,1.6 L59.7,6.9 L58.8,6.9 L58.1,5.5 L55.3,5.5 L54.6,6.9 L53.7,6.9 L56.5,1.6 L56.5,1.6 Z"></path>
                            <path d="M60.6,1.6 L61.4,1.6 L61.4,6.2 L65.4,6.2 L65.4,7 L60.6,7 L60.6,1.6 L60.6,1.6 Z"></path>
                        </g>
                        <g id="Shape">
                            <path d="M0.1,0.7 L2.5,0.7 L10.8,13.3 L19.2,0.7 L21.6,0.7 L21.6,21.3 L19,21.3 L19,5.2 L10.8,17.4 L2.7,5.2 L2.7,21.3 L0.1,21.3 L0.1,0.7 L0.1,0.7 Z" fill="#FFFFFF"></path>
                            <path d="M38.3,13.3 L33.7,4.2 L29.2,13.3 L38.3,13.3 L38.3,13.3 Z M32.7,0.7 L34.8,0.7 L45,21.3 L42.2,21.3 L39.4,15.7 L28.1,15.7 L25.4,21.3 L22.6,21.3 L32.7,0.7 L32.7,0.7 Z" fill="#FFFFFF"></path>
                            <path d="M57.9,9.9 C60.5,9.9 61.8,8.7 61.8,6.5 C61.8,4.4 60.5,3.1 58,3.1 L48.8,3.1 L48.8,9.9 L57.9,9.9 L57.9,9.9 Z M46.2,0.7 L58,0.7 C62.1,0.7 64.5,2.8 64.5,6.4 C64.5,9.3 62.6,11.7 59.6,12.2 L64.8,21.3 L62,21.3 L56.8,12.3 L48.8,12.3 L48.8,21.3 L46.2,21.3 L46.2,0.7 L46.2,0.7 Z" fill="#FFFFFF"></path>
                            <path d="M85.8,16.2 C83.9,19.8 80.5,21.8 76.3,21.8 C70.1,21.8 65.6,17.3 65.6,11 C65.6,4.7 70.1,0.2 76.3,0.2 C80.1,0.2 83.4,2 85.3,5 L83.2,6.5 C81.9,4 79.3,2.6 76.3,2.6 C71.7,2.6 68.3,6.1 68.3,11 C68.3,15.9 71.7,19.4 76.3,19.4 C79.5,19.4 82.1,17.8 83.7,14.7 L85.8,16.2 L85.8,16.2 Z" fill="#FFFFFF"></path>
                            <path d="M108.2,11 C108.2,5 103.3,0.1 97.3,0.1 C91.3,0.1 86.4,5 86.4,11 C86.4,15.9 89.6,20 94.1,21.4 L97.4,29.7 L100.9,21.3 C105.1,19.8 108.2,15.7 108.2,11 L108.2,11 L108.2,11 Z M97.4,18.8 C93,18.8 89.5,15.3 89.5,10.9 C89.5,6.5 93,3 97.4,3 C101.8,3 105.3,6.5 105.3,10.9 C105.3,15.2 101.7,18.8 97.4,18.8 L97.4,18.8 L97.4,18.8 Z" fill="#EAB13A"></path>
                        </g>
                    </g>
                </g>
            </g>
        </g>
    </g>
</svg>