<?xml version="1.0" encoding="utf-8"?>
<!-- Generator: Adobe Illustrator 18.0.0, SVG Export Plug-In . SVG Version: 6.00 Build 0)  -->
<!DOCTYPE svg PUBLIC "-//W3C//DTD SVG 1.1//EN" "http://www.w3.org/Graphics/SVG/1.1/DTD/svg11.dtd">
<svg version="1.1" id="Layer_1" xmlns="http://www.w3.org/2000/svg" xmlns:xlink="http://www.w3.org/1999/xlink" x="0px" y="0px"
	 viewBox="0 0 250 51.7" enable-background="new 0 0 250 51.7" xml:space="preserve">
<g>
	<g>
		<polygon fill="#FFFFFF" points="131.9,13.2 132.7,13.2 135.4,17.4 138.2,13.2 139,13.2 139,20.1 138.2,20.1 138.2,14.7 
			135.4,18.8 132.7,14.7 132.7,20.1 131.9,20.1 		"/>
		<rect x="140.9" y="14.7" fill="#FFFFFF" width="0.8" height="5.4"/>
		<path fill="#FFFFFF" d="M144.5,15.5v3.8h1.5c1.3,0,2-0.8,2-1.9c0-1.1-0.8-1.9-2-1.9H144.5z M148.9,17.4c0,1.5-1,2.6-2.9,2.6h-2.4
			v-5.3h2.4C147.8,14.7,148.9,15.9,148.9,17.4"/>
		<rect x="149.6" y="16.3" fill="#FFFFFF" width="2.7" height="0.8"/>
		<path fill="#FFFFFF" d="M157.9,17.4l-1.5-3.1l-1.5,3.1H157.9z M156,13.2h0.7l3.4,6.9h-0.9l-0.9-1.9h-3.8l-0.9,1.9h-0.9L156,13.2z"
			/>
		<polygon fill="#FFFFFF" points="161.8,15.5 159.6,15.5 159.6,14.7 164.9,14.7 164.9,15.5 162.6,15.5 162.6,20.1 161.8,20.1 		"/>
		<polygon fill="#FFFFFF" points="165.7,14.7 166.6,14.7 166.6,19.3 170.5,19.3 170.5,20.1 165.7,20.1 		"/>
		<path fill="#FFFFFF" d="M174.5,18l-1-2l-1,2H174.5z M173.2,14.7h0.5l2.7,5.3h-0.9l-0.7-1.4H172l-0.7,1.4h-0.9L173.2,14.7z"/>
		<polygon fill="#FFFFFF" points="177.2,14.7 177.7,14.7 181.1,18.5 181.1,14.7 181.9,14.7 181.9,20.1 181.4,20.1 178,16.3 
			178,20.1 177.2,20.1 		"/>
		<polygon fill="#FFFFFF" points="185,15.5 182.7,15.5 182.7,14.7 188.1,14.7 188.1,15.5 185.8,15.5 185.8,20.1 185,20.1 		"/>
		<rect x="188.9" y="14.7" fill="#FFFFFF" width="0.8" height="5.4"/>
		<path fill="#FFFFFF" d="M194.3,20.2c-1.9,0-3.2-1.2-3.2-2.8c0-1.6,1.3-2.8,3.2-2.8c1.2,0,2.2,0.5,2.7,1.3l-0.7,0.5
			c-0.4-0.6-1.2-0.9-2.1-0.9c-1.4,0-2.4,0.9-2.4,2c0,1.2,1,2,2.4,2c1,0,1.7-0.4,2.2-1.2l0.7,0.5C196.6,19.7,195.6,20.2,194.3,20.2"
			/>
		<path fill="#FFFFFF" d="M208.7,16.6c0-1.6-1.1-2.8-2.7-2.8c-1.5,0-2.7,1.2-2.7,2.8s1.2,2.8,2.7,2.8
			C207.6,19.4,208.7,18.3,208.7,16.6 M202.5,16.6c0-2.1,1.5-3.6,3.6-3.6c2.1,0,3.6,1.5,3.6,3.6c0,2.1-1.5,3.6-3.6,3.6
			C204,20.3,202.5,18.7,202.5,16.6"/>
		<path fill="#FFFFFF" d="M213.8,20.2c-1.9,0-3.2-1.2-3.2-2.8c0-1.6,1.3-2.8,3.2-2.8c1.2,0,2.2,0.5,2.7,1.3l-0.7,0.5
			c-0.4-0.6-1.2-0.9-2.1-0.9c-1.4,0-2.4,0.9-2.4,2c0,1.2,1,2,2.4,2c1,0,1.7-0.4,2.2-1.2l0.7,0.5C216,19.7,215,20.2,213.8,20.2"/>
		<polygon fill="#FFFFFF" points="218,14.7 223.1,14.7 223.1,15.5 218.9,15.5 218.9,16.8 221.6,16.8 221.6,17.6 218.9,17.6 
			218.9,19.3 223.3,19.3 223.3,20.1 218,20.1 		"/>
		<path fill="#FFFFFF" d="M227.5,18l-1-2l-1,2H227.5z M226.2,14.7h0.5l2.7,5.3h-0.9l-0.7-1.4H225l-0.7,1.4h-0.9L226.2,14.7z"/>
		<polygon fill="#FFFFFF" points="230.2,14.7 230.7,14.7 234.1,18.5 234.1,14.7 234.9,14.7 234.9,20.1 234.4,20.1 231,16.3 
			231,20.1 230.2,20.1 		"/>
	</g>
	<g>
		<path fill="#FFFFFF" d="M132.4,23.9v5.3h2.1c1.8,0,2.7-1.1,2.7-2.6c0-1.5-1-2.7-2.7-2.7H132.4z M138.1,26.5c0,2-1.3,3.4-3.6,3.4
			h-3v-6.9h3C136.8,23.1,138.1,24.6,138.1,26.5"/>
		<path fill="#FFFFFF" d="M142.5,27.9l-1-2l-1,2H142.5z M141.2,24.6h0.5l2.7,5.3h-0.9l-0.7-1.4h-2.8l-0.7,1.4h-0.9L141.2,24.6z"/>
		<polygon fill="#FFFFFF" points="146.1,25.4 143.8,25.4 143.8,24.6 149.1,24.6 149.1,25.4 146.9,25.4 146.9,30 146.1,30 		"/>
		<path fill="#FFFFFF" d="M152.5,27.9l-1-2l-1.1,2H152.5z M151.2,24.6h0.5l2.7,5.3h-0.9l-0.7-1.4H150l-0.7,1.4h-0.9L151.2,24.6z"/>
		<path fill="#FFFFFF" d="M163.5,26.2c0.9,0,1.3-0.4,1.3-1.1c0-0.7-0.4-1.2-1.3-1.2h-3.1v2.3H163.5z M159.6,23.1h4
			c1.4,0,2.2,0.7,2.2,1.9c0,1.2-0.8,2-2,2h-3.2v3h-0.9V23.1z"/>
		<path fill="#FFFFFF" d="M172,27.3c0-1.1-0.9-2-2.4-2c-1.5,0-2.4,0.9-2.4,2s0.9,2,2.4,2C171,29.4,172,28.5,172,27.3 M166.3,27.3
			c0-1.6,1.3-2.8,3.3-2.8c2,0,3.3,1.2,3.3,2.8c0,1.6-1.3,2.8-3.3,2.8C167.6,30.1,166.3,28.9,166.3,27.3"/>
		<path fill="#FFFFFF" d="M177.9,26.9c0.6,0,0.9-0.3,0.9-0.7c0-0.5-0.3-0.7-0.9-0.7H175v1.4H177.9z M175,30h-0.8v-5.3h3.7
			c1.1,0,1.7,0.6,1.7,1.5c0,0.7-0.5,1.4-1.3,1.5l1.5,2.3h-0.9l-1.5-2.3H175V30z"/>
		<polygon fill="#FFFFFF" points="182.4,25.4 180.1,25.4 180.1,24.6 185.5,24.6 185.5,25.4 183.2,25.4 183.2,30 182.4,30 		"/>
		<path fill="#FFFFFF" d="M188.8,27.9l-1-2l-1.1,2H188.8z M187.5,24.6h0.5l2.7,5.3h-0.9l-0.7-1.4h-2.8l-0.7,1.4h-0.9L187.5,24.6z"/>
		<polygon fill="#FFFFFF" points="191.6,24.6 192.4,24.6 192.4,29.2 196.4,29.2 196.4,30 191.6,30 		"/>
	</g>
	<g>
		<polygon fill="#FFFFFF" points="15.1,11.7 17.5,11.7 25.8,24.3 34.2,11.7 36.6,11.7 36.6,32.3 34,32.3 34,16.2 25.8,28.4 
			17.7,16.2 17.7,32.3 15.1,32.3 		"/>
		<path fill="#FFFFFF" d="M53.3,24.3l-4.6-9.1l-4.5,9.1H53.3z M47.7,11.7h2.1l10.2,20.6h-2.8l-2.8-5.6H43.1l-2.7,5.6h-2.8L47.7,11.7
			z"/>
		<path fill="#FFFFFF" d="M72.9,20.9c2.6,0,3.9-1.2,3.9-3.4c0-2.1-1.3-3.4-3.8-3.4h-9.2v6.8H72.9z M61.2,11.7H73
			c4.1,0,6.5,2.1,6.5,5.7c0,2.9-1.9,5.3-4.9,5.8l5.2,9.1h-2.8l-5.2-9h-8v9h-2.6V11.7z"/>
		<path fill="#FFFFFF" d="M100.8,27.2c-1.9,3.6-5.3,5.6-9.5,5.6c-6.2,0-10.7-4.5-10.7-10.8c0-6.3,4.5-10.8,10.7-10.8
			c3.8,0,7.1,1.8,9,4.8l-2.1,1.5c-1.3-2.5-3.9-3.9-6.9-3.9c-4.6,0-8,3.5-8,8.4c0,4.9,3.4,8.4,8,8.4c3.2,0,5.8-1.6,7.4-4.7
			L100.8,27.2z"/>
		<path fill="#EAB23A" d="M123.2,22c0-6-4.9-10.9-10.9-10.9c-6,0-10.9,4.9-10.9,10.9c0,4.9,3.2,9,7.7,10.4l3.3,8.3l3.5-8.4
			C120.1,30.8,123.2,26.7,123.2,22z M112.4,29.8c-4.4,0-7.9-3.5-7.9-7.9c0-4.4,3.5-7.9,7.9-7.9c4.4,0,7.9,3.5,7.9,7.9
			C120.3,26.2,116.7,29.8,112.4,29.8z"/>
	</g>
</g>
</svg>
