<?xml version="1.0" encoding="UTF-8" standalone="no"?>
<svg width="30px" height="30px" viewBox="0 0 30 30" version="1.1" xmlns="http://www.w3.org/2000/svg" xmlns:xlink="http://www.w3.org/1999/xlink" xmlns:sketch="http://www.bohemiancoding.com/sketch/ns">
    <!-- Generator: Sketch 3.2.2 (9983) - http://www.bohemiancoding.com/sketch -->
    <title>marco_marker + Rectangle 1</title>
    <desc>Created with Sketch.</desc>
    <defs></defs>
    <g id="Page-1" stroke="none" stroke-width="1" fill="none" fill-rule="evenodd" sketch:type="MSPage">
        <g id="marco_marker-+-Rectangle-1" sketch:type="MSLayerGroup">
            <g id="marco_marker" transform="translate(4.000000, 0.000000)" fill="#00A564" sketch:type="MSShapeGroup">
                <g id="Page-1">
                    <g id="MARCO_portal_logo_blue_green_recropped">
                        <g id="Page-1">
                            <g id="MARCO_portal_logo_blue_green">
                                <g id="Group">
                                    <g id="Shape">
                                        <path d="M22.2,11 C22.2,5 17.3,0.1 11.3,0.1 C5.3,0.1 0.4,5 0.4,11 C0.4,15.9 3.6,20 8.1,21.4 L11.4,29.7 L14.9,21.3 C19.1,19.8 22.2,15.7 22.2,11 L22.2,11 L22.2,11 Z M11.4,18.8 C7,18.8 3.5,15.3 3.5,10.9 C3.5,6.5 7,3 11.4,3 C15.8,3 19.3,6.5 19.3,10.9 C19.3,15.2 15.7,18.8 11.4,18.8 L11.4,18.8 L11.4,18.8 Z"></path>
                                    </g>
                                </g>
                            </g>
                        </g>
                    </g>
                </g>
            </g>
            <rect id="Rectangle-1" sketch:type="MSShapeGroup" x="0" y="0" width="30" height="30"></rect>
        </g>
    </g>
</svg>