<?xml version="1.0" encoding="UTF-8" standalone="no"?>
<svg width="23px" height="30px" viewBox="0 0 23 30" version="1.1" xmlns="http://www.w3.org/2000/svg" xmlns:xlink="http://www.w3.org/1999/xlink" xmlns:sketch="http://www.bohemiancoding.com/sketch/ns">
    <!-- Generator: Sketch 3.2.2 (9983) - http://www.bohemiancoding.com/sketch -->
    <title>Slice 1</title>
    <desc>Created with Sketch.</desc>
    <defs></defs>
    <g id="Page-1" stroke="none" stroke-width="1" fill="none" fill-rule="evenodd" sketch:type="MSPage">
        <g id="MARCO_portal_logo_blue_green_recropped" sketch:type="MSLayerGroup" transform="translate(-86.000000, 0.000000)" fill="#00A564">
            <g id="Page-1" sketch:type="MSShapeGroup">
                <g id="MARCO_portal_logo_blue_green">
                    <g id="Group">
                        <g id="Shape">
                            <path d="M108.2,11 C108.2,5 103.3,0.1 97.3,0.1 C91.3,0.1 86.4,5 86.4,11 C86.4,15.9 89.6,20 94.1,21.4 L97.4,29.7 L100.9,21.3 C105.1,19.8 108.2,15.7 108.2,11 L108.2,11 L108.2,11 Z M97.4,18.8 C93,18.8 89.5,15.3 89.5,10.9 C89.5,6.5 93,3 97.4,3 C101.8,3 105.3,6.5 105.3,10.9 C105.3,15.2 101.7,18.8 97.4,18.8 L97.4,18.8 L97.4,18.8 Z"></path>
                        </g>
                    </g>
                </g>
            </g>
        </g>
    </g>
</svg>